<svg width="1061" height="253" viewBox="0 0 1061 253" fill="none" xmlns="http://www.w3.org/2000/svg">
<path d="M190 230H0V250H190V230Z" fill="#F1C40F"/>
<path d="M20.0002 0H0.000244141V250H20.0002V0Z" fill="#F1C40F"/>
<path d="M250 0H0V20H250V0Z" fill="#F1C40F"/>
<path d="M250 0H230V60H250V0Z" fill="#F1C40F"/>
<path d="M248.545 190.718V250H228.577V98.5703H284.427C300.998 98.5703 313.964 102.8 323.324 111.259C332.754 119.718 337.469 130.916 337.469 144.852C337.469 159.551 332.858 170.888 323.636 178.861C314.484 186.766 301.345 190.718 284.219 190.718H248.545ZM248.545 174.389H284.427C295.104 174.389 303.286 171.893 308.972 166.901C314.657 161.839 317.5 154.559 317.5 145.06C317.5 136.046 314.657 128.835 308.972 123.427C303.286 118.019 295.486 115.211 285.571 115.003H248.545V174.389ZM405.175 252.08C389.921 252.08 377.51 247.088 367.942 237.104C358.374 227.05 353.589 213.633 353.589 196.854V193.318C353.589 182.155 355.704 172.205 359.934 163.469C364.232 154.663 370.195 147.799 377.822 142.876C385.519 137.884 393.839 135.388 402.783 135.388C417.413 135.388 428.784 140.207 436.896 149.844C445.009 159.482 449.065 173.28 449.065 191.238V199.246H372.83C373.107 210.34 376.332 219.319 382.502 226.183C388.743 232.978 396.647 236.375 406.215 236.375C413.01 236.375 418.765 234.989 423.48 232.215C428.195 229.442 432.32 225.767 435.856 221.191L447.609 230.343C438.179 244.834 424.035 252.08 405.175 252.08ZM402.783 151.196C395.018 151.196 388.5 154.039 383.23 159.725C377.961 165.341 374.702 173.245 373.454 183.438H429.824V181.981C429.27 172.205 426.635 164.647 421.92 159.309C417.205 153.9 410.826 151.196 402.783 151.196ZM497.531 110.219V137.468H518.54V152.34H497.531V222.127C497.531 226.634 498.467 230.031 500.339 232.319C502.211 234.538 505.4 235.647 509.907 235.647C512.126 235.647 515.177 235.231 519.06 234.399V250C513.998 251.387 509.075 252.08 504.291 252.08C495.693 252.08 489.21 249.48 484.842 244.28C480.474 239.08 478.29 231.695 478.29 222.127V152.34H457.801V137.468H478.29V110.219H497.531ZM587.806 252.08C572.552 252.08 560.141 247.088 550.573 237.104C541.004 227.05 536.22 213.633 536.22 196.854V193.318C536.22 182.155 538.335 172.205 542.564 163.469C546.863 154.663 552.826 147.799 560.453 142.876C568.149 137.884 576.47 135.388 585.414 135.388C600.044 135.388 611.415 140.207 619.527 149.844C627.64 159.482 631.696 173.28 631.696 191.238V199.246H555.461C555.738 210.34 558.962 219.319 565.133 226.183C571.374 232.978 579.278 236.375 588.846 236.375C595.641 236.375 601.396 234.989 606.111 232.215C610.826 229.442 614.951 225.767 618.487 221.191L630.24 230.343C620.81 244.834 606.666 252.08 587.806 252.08ZM585.414 151.196C577.648 151.196 571.131 154.039 565.861 159.725C560.592 165.341 557.333 173.245 556.085 183.438H612.455V181.981C611.9 172.205 609.266 164.647 604.551 159.309C599.836 153.9 593.457 151.196 585.414 151.196ZM708.451 154.732C705.539 154.247 702.384 154.004 698.986 154.004C686.367 154.004 677.804 159.378 673.297 170.125V250H654.057V137.468H672.777L673.089 150.468C679.399 140.415 688.343 135.388 699.922 135.388C703.667 135.388 706.509 135.873 708.451 136.844V154.732ZM791.758 220.151C791.758 214.951 789.782 210.929 785.83 208.086C781.947 205.174 775.117 202.678 765.341 200.598C755.634 198.518 747.903 196.022 742.148 193.11C736.462 190.198 732.233 186.731 729.459 182.709C726.755 178.688 725.403 173.904 725.403 168.357C725.403 159.135 729.286 151.335 737.052 144.956C744.887 138.577 754.871 135.388 767.005 135.388C779.763 135.388 790.094 138.681 797.998 145.268C805.972 151.855 809.958 160.279 809.958 170.541H790.614C790.614 165.271 788.36 160.73 783.854 156.917C779.416 153.103 773.8 151.196 767.005 151.196C760.002 151.196 754.524 152.722 750.572 155.772C746.62 158.823 744.644 162.81 744.644 167.733C744.644 172.378 746.481 175.88 750.156 178.237C753.831 180.595 760.453 182.848 770.021 184.998C779.659 187.147 787.459 189.712 793.422 192.694C799.385 195.675 803.788 199.281 806.63 203.51C809.542 207.67 810.999 212.767 810.999 218.799C810.999 228.853 806.977 236.93 798.934 243.032C790.891 249.064 780.456 252.08 767.629 252.08C758.615 252.08 750.642 250.485 743.708 247.296C736.774 244.106 731.332 239.669 727.379 233.983C723.497 228.229 721.555 222.023 721.555 215.367H740.796C741.143 221.815 743.708 226.946 748.492 230.759C753.346 234.503 759.725 236.375 767.629 236.375C774.909 236.375 780.733 234.919 785.102 232.007C789.539 229.026 791.758 225.074 791.758 220.151ZM830.967 192.694C830.967 181.669 833.117 171.754 837.416 162.949C841.784 154.143 847.816 147.348 855.512 142.564C863.278 137.78 872.118 135.388 882.033 135.388C897.356 135.388 909.733 140.692 919.163 151.3C928.662 161.909 933.411 176.019 933.411 193.63V194.982C933.411 205.937 931.296 215.783 927.067 224.519C922.907 233.186 916.909 239.946 909.074 244.8C901.309 249.653 892.364 252.08 882.241 252.08C866.987 252.08 854.611 246.776 845.112 236.167C835.682 225.559 830.967 211.519 830.967 194.046V192.694ZM850.312 194.982C850.312 207.462 853.189 217.481 858.944 225.039C864.769 232.597 872.534 236.375 882.241 236.375C892.018 236.375 899.783 232.562 905.538 224.935C911.293 217.239 914.17 206.492 914.17 192.694C914.17 180.352 911.224 170.368 905.33 162.741C899.506 155.044 891.74 151.196 882.033 151.196C872.534 151.196 864.873 154.975 859.048 162.533C853.224 170.09 850.312 180.907 850.312 194.982ZM975.741 137.468L976.365 151.612C984.962 140.796 996.195 135.388 1010.06 135.388C1033.84 135.388 1045.84 148.804 1046.05 175.637V250H1026.81V175.533C1026.74 167.421 1024.87 161.423 1021.19 157.541C1017.58 153.658 1011.93 151.716 1004.24 151.716C997.998 151.716 992.52 153.38 987.805 156.708C983.09 160.037 979.416 164.405 976.781 169.813V250H957.54V137.468H975.741Z" fill="white"/>
</svg>
